<svg viewBox="0 0 20 20" version="1.1" xmlns="http://www.w3.org/2000/svg" fill="#454545" stroke="#454545"><g id="SVGRepo_bgCarrier" stroke-width="0"></g><g id="SVGRepo_tracerCarrier" stroke-linecap="round" stroke-linejoin="round"></g><g id="SVGRepo_iconCarrier"> <g id="layer1"> <path d="M 6.5019531 0 A 0.50005 0.50005 0 0 0 6.2773438 0.052734375 L 0.27734375 3.0527344 A 0.50005 0.50005 0 0 0 0 3.5 L 0 19.5 A 0.50005 0.50005 0 0 0 0.72265625 19.947266 L 6.515625 17.050781 L 13.302734 19.958984 A 0.50005 0.50005 0 0 0 13.722656 19.947266 L 19.722656 16.947266 A 0.50005 0.50005 0 0 0 20 16.5 L 20 0.5 A 0.50005 0.50005 0 0 0 19.277344 0.052734375 L 13.484375 2.9492188 L 6.6972656 0.041015625 A 0.50005 0.50005 0 0 0 6.5019531 0 z M 6.515625 1.0507812 L 13.302734 3.9589844 A 0.50005 0.50005 0 0 0 13.722656 3.9472656 L 19 1.3085938 L 19 16.191406 L 13.484375 18.949219 L 6.6972656 16.041016 A 0.50005 0.50005 0 0 0 6.2773438 16.052734 L 1 18.691406 L 1 3.8085938 L 6.515625 1.0507812 z M 6.4921875 1.9921875 A 0.50005 0.50005 0 0 0 6 2.5 L 6 14.5 A 0.50005 0.50005 0 1 0 7 14.5 L 7 2.5 A 0.50005 0.50005 0 0 0 6.4921875 1.9921875 z M 13.492188 4.9921875 A 0.50005 0.50005 0 0 0 13 5.5 L 13 17.5 A 0.50005 0.50005 0 1 0 14 17.5 L 14 5.5 A 0.50005 0.50005 0 0 0 13.492188 4.9921875 z " style="fill:#222222; fill-opacity:1; stroke:none; stroke-width:0px;"></path> </g> </g></svg>