<svg version="1.1" id="WeWork" xmlns:x="ns_extend;" xmlns:i="ns_ai;" xmlns:graph="ns_graphs;" xmlns="http://www.w3.org/2000/svg" xmlns:xlink="http://www.w3.org/1999/xlink" x="0px" y="0px" viewBox="0 0 66 66" style="enable-background:new 0 0 66 66;" xml:space="preserve">
 <metadata>
  <sfw xmlns="ns_sfw;">
   <slices>
   </slices>
   <sliceSourceBounds bottomLeftOrigin="true" height="66" width="66" x="326.6" y="0.1">
   </sliceSourceBounds>
  </sfw>
 </metadata>
 <g>
  <path d="M18.7,24.7l0.1,0.5l-0.6,0.4c-0.5,0.3-0.7,0.7-0.7,1.2c0,0.4,0.1,0.8,0.4,1.6l2.6,8.1l2.4-6.4L22,28.1
		c-0.5-1.3-1-2.2-1.7-2.8l0.1-0.5c3.1,0.2,6,0.2,9.1,0l0.1,0.5l-0.7,0.4c-0.5,0.3-0.7,0.6-0.7,1.1c0,0.4,0.1,0.9,0.4,1.6l2.7,8.2
		l2.2-5.7c0.3-0.7,0.4-1.3,0.4-1.9c0-1.2-0.7-2.4-2.3-3.7l0.1-0.5c2.3,0.2,4.5,0.2,6.8,0l0.1,0.5c-1.5,1.3-2.4,2.7-3.4,5.3
		l-4.5,11.8c-1.1-0.1-2.3-0.1-3.4,0l-3.7-10.1l-3.7,10.1c-1.1-0.1-2.4-0.1-3.5,0l-5.4-14.2c-0.7-1.8-1.1-2.3-2.2-3l0.1-0.5
		C12.2,24.9,15.4,24.9,18.7,24.7z M46.9,42.9c-5.8,0-9.4-3.7-9.4-9.3s3.9-9.3,9.5-9.3c5.2,0,8.9,3.1,9.4,8.1H44.3
		c0.2,4.2,2.2,6,5.7,6c2.1,0,4.1-0.7,5.6-1.8l0.5,0.4C54.7,40.6,51.2,42.9,46.9,42.9L46.9,42.9z M44.2,31.1H50
		c-0.3-4.2-1.4-5.6-3-5.6C45.3,25.5,44.3,27.2,44.2,31.1z M33,0C14.8,0,0,14.8,0,33s14.8,33,33,33s33-14.8,33-33S51.2,0,33,0z
		 M33,64C15.9,64,2,50.1,2,33S15.9,2,33,2s31,13.9,31,31S50.1,64,33,64z">
  </path>
 </g>
</svg>